<?xml version="1.0" standalone="no"?><svg xmlns="http://www.w3.org/2000/svg" viewBox="0 0 1440 320"><path fill="#AA2309" fill-opacity="1" d="M0,224L34.3,229.3C68.6,235,137,245,206,250.7C274.3,256,343,256,411,229.3C480,203,549,149,617,112C685.7,75,754,53,823,90.7C891.4,128,960,224,1029,224C1097.1,224,1166,128,1234,80C1302.9,32,1371,32,1406,32L1440,32L1440,0L1405.7,0C1371.4,0,1303,0,1234,0C1165.7,0,1097,0,1029,0C960,0,891,0,823,0C754.3,0,686,0,617,0C548.6,0,480,0,411,0C342.9,0,274,0,206,0C137.1,0,69,0,34,0L0,0Z"></path></svg>